<svg xmlns="http://www.w3.org/2000/svg" width="23.912" height="23.912" viewBox="0 0 23.912 23.912">
  <g id="insta" transform="translate(0)">
    <path id="Path_419" data-name="Path 419" d="M11.955,2.154c3.192,0,3.571.012,4.831.07a6.615,6.615,0,0,1,2.22.412,3.705,3.705,0,0,1,1.375.894A3.7,3.7,0,0,1,21.276,4.9a6.616,6.616,0,0,1,.412,2.22c.057,1.261.07,1.639.07,4.831s-.012,3.571-.07,4.831a6.616,6.616,0,0,1-.412,2.22,3.959,3.959,0,0,1-2.269,2.269,6.615,6.615,0,0,1-2.22.412c-1.26.058-1.639.07-4.831.07s-3.571-.012-4.831-.07a6.615,6.615,0,0,1-2.22-.412,3.705,3.705,0,0,1-1.375-.894,3.7,3.7,0,0,1-.894-1.375,6.617,6.617,0,0,1-.412-2.22c-.057-1.261-.07-1.639-.07-4.831s.012-3.571.07-4.831A6.617,6.617,0,0,1,2.635,4.9,3.7,3.7,0,0,1,3.529,3.53,3.705,3.705,0,0,1,4.9,2.636a6.615,6.615,0,0,1,2.22-.412c1.261-.058,1.639-.07,4.831-.07m0-2.154C8.708,0,8.3.014,7.026.072a8.777,8.777,0,0,0-2.9.556A5.861,5.861,0,0,0,2.006,2.007,5.861,5.861,0,0,0,.627,4.124a8.776,8.776,0,0,0-.556,2.9C.013,8.3,0,8.709,0,11.956s.014,3.654.072,4.929a8.776,8.776,0,0,0,.556,2.9,5.861,5.861,0,0,0,1.379,2.118,5.861,5.861,0,0,0,2.118,1.379,8.777,8.777,0,0,0,2.9.556c1.275.058,1.682.072,4.929.072s3.654-.014,4.929-.072a8.776,8.776,0,0,0,2.9-.556,6.114,6.114,0,0,0,3.5-3.5,8.776,8.776,0,0,0,.556-2.9c.058-1.275.072-1.682.072-4.929S23.9,8.3,23.839,7.027a8.776,8.776,0,0,0-.556-2.9A5.862,5.862,0,0,0,21.9,2.007,5.861,5.861,0,0,0,19.787.628a8.776,8.776,0,0,0-2.9-.556C15.609.014,15.2,0,11.955,0" transform="translate(0.001 0)" fill="#fff"/>
    <path id="Path_420" data-name="Path 420" d="M128.695,122.556a6.14,6.14,0,1,0,6.14,6.14,6.14,6.14,0,0,0-6.14-6.14m0,10.125a3.985,3.985,0,1,1,3.985-3.985,3.985,3.985,0,0,1-3.985,3.985" transform="translate(-116.739 -116.739)" fill="#fff"/>
    <path id="Path_421" data-name="Path 421" d="M359.035,88.65a1.435,1.435,0,1,1-1.435-1.435,1.435,1.435,0,0,1,1.435,1.435" transform="translate(-339.262 -83.076)" fill="#fff"/>
  </g>
</svg>
