<svg xmlns="http://www.w3.org/2000/svg" width="215.31" height="23.912" viewBox="0 0 215.31 23.912">
  <g id="SNS" transform="translate(-101.034 -688.213)">
    <g id="TikTok" transform="translate(307.886 688.213)">
      <path id="Path_425" data-name="Path 425" d="M17.646,4.768a5.7,5.7,0,0,1-2.495-3.73A5.717,5.717,0,0,1,15.054,0h-4.09l-.007,16.389a3.436,3.436,0,1,1-3.431-3.567,3.394,3.394,0,0,1,1.014.159V8.806a7.525,7.525,0,1,0,6.513,7.454V7.949a9.728,9.728,0,0,0,5.69,1.829V5.689a5.656,5.656,0,0,1-3.1-.921" transform="translate(-12.287)" fill="#fff"/>
    </g>
    <g id="youtube" transform="translate(243.9 690.475)">
      <path id="Path_424" data-name="Path 424" d="M27.12,3.028A3.469,3.469,0,0,0,24.671.579C22.511,0,13.849,0,13.849,0S5.188,0,3.028.579A3.469,3.469,0,0,0,.579,3.028,36.039,36.039,0,0,0,0,9.695a36.041,36.041,0,0,0,.579,6.667A3.469,3.469,0,0,0,3.028,18.81c2.16.579,10.822.579,10.822.579s8.662,0,10.822-.579a3.469,3.469,0,0,0,2.449-2.449A36.041,36.041,0,0,0,27.7,9.695a36.039,36.039,0,0,0-.579-6.667M11.08,13.849V5.54l7.2,4.155Z" fill="#fff"/>
    </g>
    <g id="x" transform="translate(15.537)">
      <path id="Path_423" data-name="Path 423" d="M11.04,13.342h0l-.921-1.317L2.793,1.546H5.947L11.859,10l.921,1.317,7.685,10.992H17.311ZM20.464,0,12.94,8.746,6.931,0H0L9.087,13.225,0,23.787H2.053L10,14.551l6.346,9.236h6.931L13.852,10.072h0L22.517,0Z" transform="translate(181.088 688.213)" fill="#fff"/>
    </g>
    <g id="fb" transform="translate(149.263 688.638)">
      <path id="Path_422" data-name="Path 422" d="M23.678,11.839A11.839,11.839,0,1,0,8.979,23.33V15.457H6.538V11.839H8.979V10.28c0-4.03,1.824-5.9,5.78-5.9a13.054,13.054,0,0,1,2.574.294v3.28c-.279-.029-.765-.044-1.368-.044-1.941,0-2.691.735-2.691,2.647v1.279h3.867l-.664,3.618h-3.2v8.135a11.841,11.841,0,0,0,10.4-11.753" transform="translate(-0.316 -0.316)" fill="#fff"/>
    </g>
    <g id="insta" transform="translate(101.034 688.213)">
      <path id="Path_419" data-name="Path 419" d="M11.955,2.154c3.192,0,3.571.012,4.831.07a6.615,6.615,0,0,1,2.22.412,3.705,3.705,0,0,1,1.375.894A3.7,3.7,0,0,1,21.276,4.9a6.616,6.616,0,0,1,.412,2.22c.057,1.261.07,1.639.07,4.831s-.012,3.571-.07,4.831a6.616,6.616,0,0,1-.412,2.22,3.959,3.959,0,0,1-2.269,2.269,6.615,6.615,0,0,1-2.22.412c-1.26.058-1.639.07-4.831.07s-3.571-.012-4.831-.07a6.615,6.615,0,0,1-2.22-.412,3.705,3.705,0,0,1-1.375-.894,3.7,3.7,0,0,1-.894-1.375,6.617,6.617,0,0,1-.412-2.22c-.057-1.261-.07-1.639-.07-4.831s.012-3.571.07-4.831A6.617,6.617,0,0,1,2.635,4.9,3.7,3.7,0,0,1,3.529,3.53,3.705,3.705,0,0,1,4.9,2.636a6.615,6.615,0,0,1,2.22-.412c1.261-.058,1.639-.07,4.831-.07m0-2.154C8.708,0,8.3.014,7.026.072a8.777,8.777,0,0,0-2.9.556A5.861,5.861,0,0,0,2.006,2.007,5.861,5.861,0,0,0,.627,4.124a8.776,8.776,0,0,0-.556,2.9C.013,8.3,0,8.709,0,11.956s.014,3.654.072,4.929a8.776,8.776,0,0,0,.556,2.9,5.861,5.861,0,0,0,1.379,2.118,5.861,5.861,0,0,0,2.118,1.379,8.777,8.777,0,0,0,2.9.556c1.275.058,1.682.072,4.929.072s3.654-.014,4.929-.072a8.776,8.776,0,0,0,2.9-.556,6.114,6.114,0,0,0,3.5-3.5,8.776,8.776,0,0,0,.556-2.9c.058-1.275.072-1.682.072-4.929S23.9,8.3,23.839,7.027a8.776,8.776,0,0,0-.556-2.9A5.862,5.862,0,0,0,21.9,2.007,5.861,5.861,0,0,0,19.787.628a8.776,8.776,0,0,0-2.9-.556C15.609.014,15.2,0,11.955,0" transform="translate(0.001 0)" fill="#fff"/>
      <path id="Path_420" data-name="Path 420" d="M128.695,122.556a6.14,6.14,0,1,0,6.14,6.14,6.14,6.14,0,0,0-6.14-6.14m0,10.125a3.985,3.985,0,1,1,3.985-3.985,3.985,3.985,0,0,1-3.985,3.985" transform="translate(-116.739 -116.739)" fill="#fff"/>
      <path id="Path_421" data-name="Path 421" d="M359.035,88.65a1.435,1.435,0,1,1-1.435-1.435,1.435,1.435,0,0,1,1.435,1.435" transform="translate(-339.262 -83.076)" fill="#fff"/>
    </g>
  </g>
</svg>
