<svg xmlns="http://www.w3.org/2000/svg" width="20.744" height="23.787" viewBox="0 0 20.744 23.787">
  <g id="TikTok" transform="translate(12.287)">
    <path id="Path_425" data-name="Path 425" d="M17.646,4.768a5.7,5.7,0,0,1-2.495-3.73A5.717,5.717,0,0,1,15.054,0h-4.09l-.007,16.389a3.436,3.436,0,1,1-3.431-3.567,3.394,3.394,0,0,1,1.014.159V8.806a7.525,7.525,0,1,0,6.513,7.454V7.949a9.728,9.728,0,0,0,5.69,1.829V5.689a5.656,5.656,0,0,1-3.1-.921" transform="translate(-12.287)" fill="#fff"/>
  </g>
</svg>
