<svg id="youtube" xmlns="http://www.w3.org/2000/svg" width="27.699" height="19.389" viewBox="0 0 27.699 19.389">
  <path id="Path_424" data-name="Path 424" d="M27.12,3.028A3.469,3.469,0,0,0,24.671.579C22.511,0,13.849,0,13.849,0S5.188,0,3.028.579A3.469,3.469,0,0,0,.579,3.028,36.039,36.039,0,0,0,0,9.695a36.041,36.041,0,0,0,.579,6.667A3.469,3.469,0,0,0,3.028,18.81c2.16.579,10.822.579,10.822.579s8.662,0,10.822-.579a3.469,3.469,0,0,0,2.449-2.449A36.041,36.041,0,0,0,27.7,9.695a36.039,36.039,0,0,0-.579-6.667M11.08,13.849V5.54l7.2,4.155Z" fill="#fff"/>
</svg>
