<svg xmlns="http://www.w3.org/2000/svg" width="375" height="70" viewBox="0 0 375 70"><g transform="translate(0 -82)"><rect width="375" height="70" transform="translate(0 82)" fill="#fff"/><g transform="translate(92.285 90.639)"><path d="M1565.322,220.5l-4.394,4.394H1594.3V220.5Z" transform="translate(-1403.869 -198.313)" fill="#e82717"/><path d="M1513.286,269.907l-4.688,4.688h38.638v-4.688Z" transform="translate(-1356.804 -242.749)" fill="#e82717"/><path d="M0,269.907v4.688H28.953l4.7-4.688Z" transform="translate(0 -242.749)" fill="#e82717"/><path d="M0,220.5v4.394H34.232l4.406-4.394Z" transform="translate(0 -198.313)" fill="#e82717"/><g transform="translate(48.297 0)"><path d="M559.351,230.159h-2.615V227.2h1.906a2.456,2.456,0,0,0,1.616-.5,1.836,1.836,0,0,0,.6-1.5v-4.7h3.349v4.83a4.906,4.906,0,0,1-.361,1.874,4.784,4.784,0,0,1-1,1.539,4.625,4.625,0,0,1-1.533,1.037,4.975,4.975,0,0,1-1.964.38" transform="translate(-549.015 -198.313)" fill="#030000"/><path d="M632.739,228.662H629.2l-.786-2.086H625l-.773,2.086h-3.49l2.9-7.264a4.725,4.725,0,0,1,1.294-1.919,2.937,2.937,0,0,1,3.671,0,4.631,4.631,0,0,1,1.282,1.919Zm-6.684-4.933h1.275l-.644-1.687Z" transform="translate(-606.575 -196.816)" fill="#030000"/><path d="M746.45,230.159h-3.22V220.5h6.44a3.559,3.559,0,0,1,1.43.264,2.917,2.917,0,0,1,1,.7,2.844,2.844,0,0,1,.592,1,3.471,3.471,0,0,1,.193,1.14,3.643,3.643,0,0,1-.193,1.159,2.954,2.954,0,0,1-1.6,1.777,3.344,3.344,0,0,1-1.43.283h-3.22Zm0-6.3h3.155v-.4H746.45Z" transform="translate(-716.744 -198.313)" fill="#030000"/><path d="M831.394,228.662h-3.542l-.786-2.086h-3.413l-.773,2.086h-3.49l2.9-7.264a4.725,4.725,0,0,1,1.294-1.919,2.937,2.937,0,0,1,3.671,0,4.628,4.628,0,0,1,1.282,1.919Zm-6.684-4.933h1.275l-.644-1.687Z" transform="translate(-785.242 -196.816)" fill="#030000"/><path d="M951.029,229.406a2.412,2.412,0,0,1-1.449-.431,8.308,8.308,0,0,1-1.307-1.23l-3.039-3.426v4.92h-3.349v-7.406a2.659,2.659,0,0,1,.187-1.037,2.153,2.153,0,0,1,.489-.734,2,2,0,0,1,.715-.438,2.5,2.5,0,0,1,.85-.148,2.314,2.314,0,0,1,1.2.3,4.6,4.6,0,0,1,1.075.96l3.258,3.761v-4.92h3.349v7.856a2.136,2.136,0,0,1-.18.921,1.74,1.74,0,0,1-.464.612,1.775,1.775,0,0,1-.644.335,2.53,2.53,0,0,1-.7.1" transform="translate(-895.411 -197.392)" fill="#030000"/><path d="M1066.547,230.159H1057.6V220.5h8.951v2.962h-5.538v.438h5.538v2.859h-5.538v.438h5.538Z" transform="translate(-999.479 -198.313)" fill="#030000"/><path d="M1155.919,230.159h-5.4V227.2h5.9v-.438h-2.833a3.36,3.36,0,0,1-1.217-.225,2.971,2.971,0,0,1-1.017-.644,3.2,3.2,0,0,1-.959-2.338,2.879,2.879,0,0,1,.251-1.191,3.013,3.013,0,0,1,.689-.972,3.23,3.23,0,0,1,1.043-.65,3.485,3.485,0,0,1,1.288-.238h5.86v2.962h-5.68v.438h2.28a5.216,5.216,0,0,1,1.43.187,3.068,3.068,0,0,1,1.12.567,2.58,2.58,0,0,1,.721.953,3.225,3.225,0,0,1,.258,1.333,2.981,2.981,0,0,1-.991,2.331,3.966,3.966,0,0,1-2.743.889" transform="translate(-1082.94 -198.313)" fill="#030000"/><path d="M1255.217,230.159h-8.951V220.5h8.951v2.962h-5.538v.438h5.538v2.859h-5.538v.438h5.538Z" transform="translate(-1169.165 -198.313)" fill="#030000"/><path d="M489.918,346.159h-4.675a5.756,5.756,0,0,1-2.125-.38,5.039,5.039,0,0,1-1.655-1.037,4.718,4.718,0,0,1-1.075-1.539,4.691,4.691,0,0,1,1.075-5.28,5.186,5.186,0,0,1,1.655-1.037,5.672,5.672,0,0,1,2.125-.386h4.675v2.962h-4.16a2.529,2.529,0,0,0-1.6.489,1.82,1.82,0,0,0,0,2.756,2.528,2.528,0,0,0,1.6.489h.811v-3.3h3.349Z" transform="translate(-480.001 -302.642)" fill="#030000"/><path d="M582.124,346.159h-3.967l-2.64-3.658v3.658h-3.349v-4.211a2.045,2.045,0,0,1,.56-1.449,1.989,1.989,0,0,1,1.526-.6h4.418v-.438H570.88V336.5h7.895a3.749,3.749,0,0,1,1.456.264,3.168,3.168,0,0,1,1.05.689,2.821,2.821,0,0,1,.631.979,3.1,3.1,0,0,1,.213,1.12,3.182,3.182,0,0,1-.174,1.037,2.831,2.831,0,0,1-.515.915,2.982,2.982,0,0,1-.857.689,3.367,3.367,0,0,1-1.185.374Z" transform="translate(-561.736 -302.642)" fill="#030000"/><path d="M696.546,344.662H693l-.786-2.086h-3.413l-.773,2.086h-3.49l2.9-7.264a4.724,4.724,0,0,1,1.294-1.919,2.937,2.937,0,0,1,3.671,0,4.629,4.629,0,0,1,1.281,1.919Zm-6.684-4.933h1.275l-.644-1.687Z" transform="translate(-663.962 -301.144)" fill="#030000"/><path d="M816.181,345.406a2.413,2.413,0,0,1-1.449-.431,8.311,8.311,0,0,1-1.307-1.23l-3.039-3.426v4.92h-3.349v-7.406a2.661,2.661,0,0,1,.187-1.037,2.153,2.153,0,0,1,.489-.734,2,2,0,0,1,.715-.438,2.5,2.5,0,0,1,.85-.148,2.313,2.313,0,0,1,1.2.3,4.6,4.6,0,0,1,1.075.96l3.258,3.761v-3.22a1.632,1.632,0,0,1,1.7-1.7h1.649v7.856a2.135,2.135,0,0,1-.18.921,1.739,1.739,0,0,1-.464.612,1.777,1.777,0,0,1-.644.335,2.531,2.531,0,0,1-.7.1" transform="translate(-774.131 -301.721)" fill="#030000"/><path d="M916.114,346.159a2.465,2.465,0,0,1-1.842-.753,2.678,2.678,0,0,1-.734-1.951V339.9h3.349v3.3h1a3.1,3.1,0,0,0,1.681-.425,1.556,1.556,0,0,0,.676-1.43,1.6,1.6,0,0,0-.676-1.417,2.9,2.9,0,0,0-1.681-.464h-5.383V336.5H918.6a5.5,5.5,0,0,1,2.009.361,4.879,4.879,0,0,1,1.6.992,4.593,4.593,0,0,1,1.056,1.507,4.672,4.672,0,0,1,.386,1.906,5.2,5.2,0,0,1-.348,1.9,4.539,4.539,0,0,1-2.537,2.608,5.179,5.179,0,0,1-2.035.386Z" transform="translate(-868.989 -302.642)" fill="#030000"/><path d="M1055.886,346.159h-3.22V336.5h6.44a3.56,3.56,0,0,1,1.43.264,2.916,2.916,0,0,1,1,.7,2.844,2.844,0,0,1,.593,1,3.474,3.474,0,0,1,.193,1.14,3.647,3.647,0,0,1-.193,1.159,2.955,2.955,0,0,1-1.6,1.777,3.345,3.345,0,0,1-1.43.283h-3.22Zm0-6.3h3.156v-.4h-3.156Z" transform="translate(-995.045 -302.642)" fill="#030000"/><path d="M1162.462,346.159h-3.967l-2.64-3.658v3.658h-3.349V336.5h6.607a3.748,3.748,0,0,1,1.455.264,3.166,3.166,0,0,1,1.049.689,2.819,2.819,0,0,1,.631.979,3.108,3.108,0,0,1,.213,1.12,3.187,3.187,0,0,1-.174,1.037,2.828,2.828,0,0,1-.515.914,2.981,2.981,0,0,1-.856.689,3.366,3.366,0,0,1-1.185.374Zm-6.736-6.182h3.284v-.425h-3.284Z" transform="translate(-1084.839 -302.642)" fill="#030000"/><rect width="3.349" height="9.659" transform="translate(77.944 33.858)" fill="#030000"/><path d="M1295.325,346.159h-4.2l3.89-4.881-3.89-4.778h4.263l1.906,2.331,1.854-2.331h4.16l-3.89,4.894,3.928,4.765h-4.289l-1.906-2.344Z" transform="translate(-1209.512 -302.641)" fill="#030000"/><path d="M781.091,144.471V141h2.782v.463h-2.249v1.014h2.249v.463h-2.249v1.532Z" transform="translate(-750.796 -126.813)" fill="#030000"/><path d="M818.327,142.476a2.021,2.021,0,0,1-.09.623,1.185,1.185,0,0,1-.75.782,1.955,1.955,0,0,1-.687.109h-.463a1.974,1.974,0,0,1-.69-.109,1.233,1.233,0,0,1-.477-.305,1.213,1.213,0,0,1-.273-.477,2.072,2.072,0,0,1-.088-.623v-.555a2.09,2.09,0,0,1,.088-.627,1.234,1.234,0,0,1,.273-.479,1.2,1.2,0,0,1,.477-.305,2.012,2.012,0,0,1,.69-.106h.463a1.994,1.994,0,0,1,.687.106,1.2,1.2,0,0,1,.474.305,1.26,1.26,0,0,1,.275.479,2.038,2.038,0,0,1,.09.627Zm-2.939.125a1.024,1.024,0,0,0,.2.694.86.86,0,0,0,.676.231h.6a.859.859,0,0,0,.678-.231,1.033,1.033,0,0,0,.2-.694v-.81a1.032,1.032,0,0,0-.2-.7.865.865,0,0,0-.678-.229h-.6a.865.865,0,0,0-.676.229,1.023,1.023,0,0,0-.2.7Z" transform="translate(-781.121 -126.275)" fill="#030000"/><path d="M861.747,144.471h-.657l-1.361-1.486a.393.393,0,0,1-.095-.167.309.309,0,0,1,0-.171.245.245,0,0,1,.1-.127.329.329,0,0,1,.192-.053h.8a.7.7,0,0,0,.419-.093.415.415,0,0,0,.118-.343v-.143a.4.4,0,0,0-.118-.338.732.732,0,0,0-.419-.088h-1.453v3.009h-.532V141h1.87a2.551,2.551,0,0,1,.474.042,1.1,1.1,0,0,1,.382.143.7.7,0,0,1,.252.275.943.943,0,0,1,.09.437v.125a.751.751,0,0,1-.322.713,1.817,1.817,0,0,1-.9.185h-.264Z" transform="translate(-820.631 -126.813)" fill="#030000"/><path d="M895.907,143.934l.532-2.916a.931.931,0,0,1,.194-.461.512.512,0,0,1,.4-.155.507.507,0,0,1,.433.187,1.229,1.229,0,0,1,.206.465l.565,2.384a.474.474,0,0,0,.03.095.055.055,0,0,0,.053.035.054.054,0,0,0,.056-.032.587.587,0,0,0,.028-.093l.574-2.388a1.132,1.132,0,0,1,.218-.465.519.519,0,0,1,.426-.187.551.551,0,0,1,.428.155.917.917,0,0,1,.2.461l.523,2.916h-.565l-.481-2.939a.2.2,0,0,0-.032-.1.075.075,0,0,0-.06-.028.094.094,0,0,0-.069.028.223.223,0,0,0-.046.1l-.565,2.379a1.069,1.069,0,0,1-.206.456.527.527,0,0,1-.423.16.5.5,0,0,1-.426-.174,1.146,1.146,0,0,1-.19-.423l-.56-2.393a.28.28,0,0,0-.042-.106.079.079,0,0,0-.065-.028.088.088,0,0,0-.065.028.168.168,0,0,0-.037.1l-.491,2.939Z" transform="translate(-854.059 -126.275)" fill="#030000"/><path d="M954.059,144.532a1.469,1.469,0,0,1-.986-.273,1.1,1.1,0,0,1-.31-.866V141h.532v2.43a.638.638,0,0,0,.164.481.717.717,0,0,0,.511.157h.833a.705.705,0,0,0,.5-.157.628.628,0,0,0,.169-.481V141H956v2.393a1.088,1.088,0,0,1-.315.866,1.558,1.558,0,0,1-1.028.273Z" transform="translate(-905.194 -126.813)" fill="#030000"/><path d="M995.542,144.471V141h.532v3.008h2.064v.463Z" transform="translate(-943.669 -126.813)" fill="#030000"/><path d="M1028.336,143.934l-.4-.935h-1.944l-.4.935h-.569l1.31-2.962a1.872,1.872,0,0,1,.238-.41.475.475,0,0,1,.4-.16.5.5,0,0,1,.4.153,1.426,1.426,0,0,1,.224.366l1.324,3.013Zm-1.509-2.9-.625,1.472h1.527l-.625-1.467a.317.317,0,0,0-.065-.113.106.106,0,0,0-.074-.03.108.108,0,0,0-.072.025.326.326,0,0,0-.067.113" transform="translate(-970.187 -126.275)" fill="#030000"/><path d="M1089.2,144.471v-.463h1.051v-2.393a.166.166,0,0,0-.035-.113.132.132,0,0,0-.1-.039h-.805V141h.889a.58.58,0,0,1,.449.153.662.662,0,0,1,.139.458v2.4h.926v.463Z" transform="translate(-1027.9 -126.813)" fill="#030000"/><path d="M842.339,481.489v.614h-3.787v-.755a1.242,1.242,0,0,1,.187-.681,1.73,1.73,0,0,1,.611-.54l1.817-1.031a1.58,1.58,0,0,0,.365-.258.431.431,0,0,0,.12-.313.417.417,0,0,0-.11-.288.513.513,0,0,0-.393-.123h-2.541V477.5h2.566a1.281,1.281,0,0,1,.924.285.975.975,0,0,1,.291.727.934.934,0,0,1-.233.684,2.514,2.514,0,0,1-.6.433l-1.878,1.031a.979.979,0,0,0-.31.245.487.487,0,0,0-.114.313v.27Z" transform="translate(-802.475 -429.454)" fill="#030000"/><path d="M900.553,479.457a2.682,2.682,0,0,1-.12.826,1.572,1.572,0,0,1-.994,1.037,2.592,2.592,0,0,1-.911.144h-.184a2.618,2.618,0,0,1-.915-.144,1.634,1.634,0,0,1-.632-.405,1.609,1.609,0,0,1-.362-.632,2.745,2.745,0,0,1-.117-.826v-.737a2.767,2.767,0,0,1,.117-.832,1.638,1.638,0,0,1,.362-.635,1.592,1.592,0,0,1,.632-.405,2.67,2.67,0,0,1,.915-.141h.184a2.643,2.643,0,0,1,.911.141,1.6,1.6,0,0,1,.629.405,1.674,1.674,0,0,1,.365.635,2.7,2.7,0,0,1,.12.832Zm-3.468.166a1.359,1.359,0,0,0,.27.921,1.14,1.14,0,0,0,.9.307h.368a1.139,1.139,0,0,0,.9-.307,1.37,1.37,0,0,0,.267-.921v-1.074a1.368,1.368,0,0,0-.267-.924,1.146,1.146,0,0,0-.9-.3h-.368a1.147,1.147,0,0,0-.9.3,1.357,1.357,0,0,0-.27.924Z" transform="translate(-854.428 -428.741)" fill="#030000"/><path d="M961.776,481.489v.614h-3.787v-.755a1.243,1.243,0,0,1,.187-.681,1.731,1.731,0,0,1,.611-.54L960.6,479.1a1.576,1.576,0,0,0,.365-.258.43.43,0,0,0,.12-.313.417.417,0,0,0-.11-.288.513.513,0,0,0-.393-.123h-2.541V477.5h2.566a1.281,1.281,0,0,1,.924.285.974.974,0,0,1,.292.727.934.934,0,0,1-.233.684,2.513,2.513,0,0,1-.6.433l-1.878,1.031a.983.983,0,0,0-.31.245.488.488,0,0,0-.113.313v.27Z" transform="translate(-909.894 -429.454)" fill="#030000"/><path d="M1020.93,479.347a1.737,1.737,0,0,1,1.046.267,1.15,1.15,0,0,1,.359.979v.307a1,1,0,0,1-.439.939,2.382,2.382,0,0,1-1.224.264h-1.927v-.614h2.1a1,1,0,0,0,.6-.141.486.486,0,0,0,.184-.411v-.424a.49.49,0,0,0-.184-.405.969.969,0,0,0-.6-.147h-2.1V477.5h3.591v.614h-2.885v1.234Z" transform="translate(-964.537 -429.454)" fill="#030000"/><path d="M640.714,5.5,636.43,9.659h-5.465l6.8-6.748C640.291.411,641.51,0,645.82,0h17.023l-3.695,3.617H646.307c-3.22,0-3.9.248-5.593,1.886M658.6,4.195H646.384c-3.243,0-3.75.248-5.221,1.719l-3.746,3.746h5.067l1.206-1.206c.8-.8,1.152-.872,2.758-.872h8.762Zm1.321,5.465L669.6,0h-6.016l-9.659,9.659Z" transform="translate(-615.775 0)" fill="#e82717"/><path d="M949.637,77.113a1.057,1.057,0,1,1,0-2.113,1.012,1.012,0,0,1,.756.306,1.1,1.1,0,0,1,0,1.5,1.009,1.009,0,0,1-.754.3m-.006-1.947a.841.841,0,0,0-.628.259.91.91,0,0,0,0,1.258.892.892,0,0,0,1.255,0,.911.911,0,0,0,0-1.26.84.84,0,0,0-.628-.259m-.206,1.064v.414h-.233V75.472h.441a.572.572,0,0,1,.343.085.3.3,0,0,1,.114.255.541.541,0,0,1-.046.253.325.325,0,0,1-.159.134l.221.445h-.245l-.2-.414Zm0-.577v.395h.237a.219.219,0,0,0,.156-.046.2.2,0,0,0,.048-.151q0-.2-.249-.2Z" transform="translate(-901.427 -67.453)" fill="#e82717"/><path d="M1054.146,6.618h7.792l.579-.577h-7.792L1060.783,0h11.241l-3.048,3.041H1062.2l-.578.577h3.706c1.2,0,1.678.184,2.028.618.567.712.046,1.765-.727,2.719a6.6,6.6,0,0,1-2.729,2.173,9.793,9.793,0,0,1-3.683.531H1051.1Z" transform="translate(-993.634 0.001)" fill="#030000"/><path d="M990.029,9.659,999.714,0H987.881l-3.049,3.041h5.828l-6.636,6.618Z" transform="translate(-933.31 0)" fill="#030000"/></g></g></g></svg>