<svg xmlns="http://www.w3.org/2000/svg" xmlns:xlink="http://www.w3.org/1999/xlink" width="1080" zoomAndPan="magnify" viewBox="0 0 810 809.999993" height="1080" preserveAspectRatio="xMidYMid meet" version="1.0"><defs><clipPath id="b59353160e"><path d="M 213 17.183594 L 715 17.183594 L 715 528 L 213 528 Z M 213 17.183594 " clip-rule="nonzero"/></clipPath><clipPath id="d260d89685"><path d="M 13.207031 331 L 794.433594 331 L 794.433594 720.640625 L 13.207031 720.640625 Z M 13.207031 331 " clip-rule="nonzero"/></clipPath></defs><g clip-path="url(#b59353160e)"><path fill="#ffffff" d="M 496.9375 216.941406 C 498.894531 220.335938 500.285156 223.953125 501.109375 227.785156 C 502.347656 233.410156 502.28125 239.023438 500.914062 244.617188 L 500.914062 245.734375 C 500.058594 248.886719 498.8125 251.878906 497.179688 254.710938 C 495.503906 257.574219 493.496094 260.175781 491.148438 262.519531 C 488.800781 264.863281 486.195312 266.867188 483.328125 268.535156 C 481.464844 269.609375 479.523438 270.515625 477.503906 271.253906 C 475.066406 272.140625 472.558594 272.773438 469.992188 273.152344 C 467.421875 273.53125 464.839844 273.644531 462.246094 273.492188 C 459.65625 273.34375 457.105469 272.933594 454.597656 272.261719 C 452.085938 271.589844 449.671875 270.671875 447.351562 269.507812 C 446.746094 269.191406 446.113281 268.875 445.53125 268.535156 C 444.949219 268.195312 443.90625 267.542969 442.9375 266.863281 C 438.289062 263.652344 434.535156 259.609375 431.679688 254.734375 C 430.890625 253.355469 430.183594 251.929688 429.570312 250.464844 L 429.570312 250.003906 C 428.035156 246.199219 427.144531 242.246094 426.894531 238.152344 C 426.648438 234.054688 427.054688 230.023438 428.117188 226.0625 C 428.117188 225.746094 428.308594 225.429688 428.40625 225.117188 L 428.671875 224.265625 L 428.820312 223.78125 L 428.820312 223.613281 C 429.613281 221.296875 430.625 219.082031 431.851562 216.964844 C 433.515625 214.089844 435.519531 211.472656 437.871094 209.121094 C 440.21875 206.769531 442.828125 204.757812 445.703125 203.089844 C 447.804688 201.875 450.003906 200.871094 452.300781 200.082031 C 453.289062 199.738281 454.292969 199.441406 455.308594 199.179688 C 456.324219 198.921875 457.347656 198.707031 458.378906 198.535156 C 459.414062 198.359375 460.453125 198.230469 461.496094 198.144531 C 462.539062 198.054688 463.585938 198.011719 464.632812 198.011719 C 465.679688 198.011719 466.726562 198.054688 467.769531 198.140625 C 468.8125 198.230469 469.851562 198.359375 470.882812 198.53125 C 471.917969 198.707031 472.941406 198.921875 473.957031 199.179688 C 474.972656 199.4375 475.972656 199.738281 476.964844 200.078125 C 477.953125 200.421875 478.929688 200.804688 479.886719 201.226562 C 480.84375 201.648438 481.785156 202.109375 482.703125 202.609375 C 483.625 203.113281 484.523438 203.648438 485.398438 204.226562 C 486.273438 204.800781 487.121094 205.410156 487.945312 206.058594 C 488.769531 206.703125 489.566406 207.382812 490.335938 208.09375 C 491.101562 208.808594 491.839844 209.550781 492.546875 210.324219 C 493.253906 211.097656 493.925781 211.898438 494.566406 212.726562 C 495.203125 213.558594 495.808594 214.410156 496.378906 215.292969 C 496.71875 215.824219 497.082031 216.382812 497.394531 216.941406 M 477.625 389.167969 L 477.625 298.394531 C 479.15625 298.082031 480.707031 297.691406 482.234375 297.257812 L 484.660156 296.527344 L 530 375.074219 L 542.6875 397.027344 C 536.242188 400.148438 529.636719 402.871094 522.867188 405.199219 C 517.578125 407.019531 512.167969 408.597656 506.734375 409.90625 C 506.171875 408.886719 505.484375 407.960938 504.675781 407.125 C 503.863281 406.289062 502.957031 405.574219 501.953125 404.980469 C 500.953125 404.386719 499.890625 403.9375 498.765625 403.628906 C 497.644531 403.320312 496.5 403.164062 495.335938 403.164062 L 477.652344 403.164062 Z M 590.789062 148.125 L 512.242188 193.460938 C 510.632812 191.65625 508.925781 189.953125 507.125 188.339844 L 552.460938 109.796875 L 565.148438 87.820312 C 571.96875 92.460938 578.4375 97.546875 584.554688 103.078125 C 588.960938 107.054688 593.160156 111.242188 597.144531 115.644531 C 596.746094 116.90625 596.542969 118.199219 596.539062 119.523438 L 596.539062 132.792969 C 596.542969 136.5 597.277344 140.058594 598.746094 143.464844 Z M 451.136719 82.675781 L 451.136719 173.351562 C 449.488281 173.691406 447.835938 174.101562 446.285156 174.585938 L 444.222656 175.21875 L 398.882812 96.675781 L 386.199219 74.695312 C 393.65625 71.082031 401.332031 68.003906 409.21875 65.453125 C 415.003906 63.597656 420.863281 62.039062 426.804688 60.773438 C 428.074219 62.289062 429.492188 63.652344 431.0625 64.859375 C 432.628906 66.066406 434.308594 67.085938 436.101562 67.925781 C 437.890625 68.761719 439.753906 69.398438 441.683594 69.828125 C 443.613281 70.257812 445.566406 70.472656 447.546875 70.476562 L 451.210938 70.476562 Z M 337.972656 323.71875 L 416.519531 278.382812 C 418.132812 280.1875 419.835938 281.890625 421.640625 283.503906 L 376.300781 362.046875 L 363.613281 384 C 355.214844 378.292969 347.355469 371.921875 340.035156 364.886719 C 335.933594 360.929688 331.957031 356.734375 328.222656 352.367188 C 329.523438 350.25 330.511719 347.992188 331.183594 345.597656 C 331.855469 343.203125 332.1875 340.761719 332.175781 338.273438 L 332.175781 327.066406 Z M 451.136719 389.046875 L 451.136719 403.113281 L 433.453125 403.113281 C 432.597656 403.113281 431.753906 403.195312 430.914062 403.359375 C 430.078125 403.527344 429.261719 403.769531 428.472656 404.097656 C 427.683594 404.421875 426.933594 404.824219 426.222656 405.296875 C 425.511719 405.773438 424.855469 406.3125 424.25 406.914062 C 423.648438 407.519531 423.109375 408.175781 422.632812 408.886719 C 422.160156 409.597656 421.761719 410.347656 421.433594 411.136719 C 421.109375 411.925781 420.863281 412.738281 420.695312 413.578125 C 420.53125 414.414062 420.449219 415.261719 420.449219 416.117188 L 420.449219 429.386719 C 420.453125 430.269531 420.496094 431.152344 420.582031 432.03125 C 420.667969 432.914062 420.800781 433.789062 420.972656 434.65625 C 421.144531 435.523438 421.363281 436.378906 421.617188 437.226562 C 421.875 438.074219 422.175781 438.90625 422.511719 439.722656 C 422.851562 440.539062 423.230469 441.339844 423.648438 442.117188 C 424.066406 442.898438 424.519531 443.65625 425.011719 444.390625 C 425.503906 445.128906 426.03125 445.835938 426.589844 446.519531 C 427.152344 447.203125 427.746094 447.859375 428.371094 448.484375 C 428.996094 449.109375 429.652344 449.703125 430.335938 450.265625 C 431.019531 450.828125 431.730469 451.355469 432.464844 451.84375 C 433.203125 452.335938 433.960938 452.792969 434.738281 453.210938 C 435.519531 453.625 436.320312 454.003906 437.136719 454.34375 C 437.953125 454.683594 438.785156 454.980469 439.632812 455.238281 C 440.480469 455.496094 441.335938 455.710938 442.203125 455.882812 C 443.070312 456.058594 443.945312 456.1875 444.824219 456.273438 C 445.707031 456.363281 446.589844 456.40625 447.472656 456.40625 L 480.78125 456.40625 C 482.257812 456.410156 483.726562 456.289062 485.1875 456.050781 C 486.648438 455.808594 488.078125 455.453125 489.480469 454.976562 C 490.882812 454.503906 492.234375 453.917969 493.539062 453.21875 C 494.84375 452.523438 496.082031 451.722656 497.257812 450.824219 C 498.429688 449.921875 499.523438 448.929688 500.53125 447.851562 C 501.542969 446.769531 502.457031 445.613281 503.277344 444.382812 C 504.097656 443.152344 504.8125 441.863281 505.421875 440.515625 C 506.03125 439.164062 506.527344 437.777344 506.90625 436.347656 C 513.1875 435.011719 519.398438 433.386719 525.390625 431.496094 C 535.644531 428.292969 545.582031 424.308594 555.203125 419.535156 L 582.152344 466.207031 L 346.125 466.207031 L 373.074219 419.535156 C 382.695312 424.308594 392.632812 428.296875 402.886719 431.496094 C 403.121094 431.566406 403.359375 431.609375 403.605469 431.628906 C 403.847656 431.644531 404.089844 431.632812 404.332031 431.589844 C 404.574219 431.550781 404.808594 431.480469 405.03125 431.386719 C 405.257812 431.289062 405.46875 431.167969 405.664062 431.023438 C 405.863281 430.878906 406.039062 430.714844 406.199219 430.527344 C 406.355469 430.339844 406.492188 430.136719 406.601562 429.917969 C 406.710938 429.703125 406.796875 429.472656 406.851562 429.234375 C 406.910156 428.996094 406.9375 428.757812 406.9375 428.511719 L 406.9375 416.09375 C 406.929688 413.660156 407.253906 411.277344 407.910156 408.9375 C 408.015625 408.550781 408.050781 408.160156 408.011719 407.761719 C 407.96875 407.367188 407.855469 406.992188 407.671875 406.636719 C 407.484375 406.28125 407.242188 405.976562 406.9375 405.714844 C 406.636719 405.453125 406.296875 405.257812 405.917969 405.128906 C 399.148438 402.8125 392.542969 400.09375 386.101562 396.976562 L 398.789062 375.023438 L 444.125 296.480469 L 446.550781 297.207031 C 448.082031 297.644531 449.632812 298.03125 451.160156 298.347656 Z M 603.332031 170.511719 L 622.035156 159.71875 L 656.457031 159.71875 C 657.339844 159.714844 658.222656 159.671875 659.101562 159.582031 C 659.984375 159.496094 660.855469 159.363281 661.722656 159.191406 C 662.589844 159.015625 663.449219 158.800781 664.292969 158.542969 C 665.140625 158.285156 665.972656 157.988281 666.789062 157.648438 C 667.605469 157.308594 668.40625 156.929688 669.183594 156.511719 C 669.964844 156.09375 670.722656 155.640625 671.457031 155.148438 C 672.195312 154.65625 672.902344 154.128906 673.585938 153.570312 C 674.269531 153.007812 674.925781 152.414062 675.550781 151.789062 C 676.175781 151.164062 676.769531 150.507812 677.332031 149.824219 C 677.890625 149.140625 678.417969 148.433594 678.910156 147.695312 C 679.402344 146.960938 679.855469 146.203125 680.273438 145.425781 C 680.691406 144.644531 681.070312 143.847656 681.410156 143.027344 C 681.75 142.210938 682.046875 141.378906 682.304688 140.535156 C 682.5625 139.6875 682.777344 138.832031 682.953125 137.964844 C 683.125 137.097656 683.257812 136.222656 683.34375 135.34375 C 683.433594 134.460938 683.476562 133.582031 683.480469 132.695312 L 683.480469 119.425781 C 683.476562 118.574219 683.394531 117.730469 683.226562 116.890625 C 683.058594 116.054688 682.808594 115.242188 682.484375 114.457031 C 682.15625 113.667969 681.753906 112.917969 681.28125 112.210938 C 680.804688 111.5 680.265625 110.84375 679.664062 110.242188 C 679.058594 109.636719 678.402344 109.097656 677.695312 108.625 C 676.984375 108.148438 676.238281 107.75 675.449219 107.421875 C 674.660156 107.09375 673.847656 106.847656 673.011719 106.679688 C 672.175781 106.511719 671.332031 106.425781 670.476562 106.425781 L 623.175781 106.425781 C 610.113281 90.382812 594.96875 76.636719 577.738281 65.1875 L 587.441406 48.449219 C 587.894531 47.710938 588.269531 46.933594 588.566406 46.117188 C 588.863281 45.304688 589.078125 44.464844 589.207031 43.609375 C 589.335938 42.75 589.378906 41.890625 589.335938 41.023438 C 589.292969 40.15625 589.164062 39.304688 588.949219 38.460938 C 588.734375 37.621094 588.441406 36.808594 588.066406 36.027344 C 587.6875 35.246094 587.238281 34.511719 586.714844 33.820312 C 586.191406 33.128906 585.605469 32.496094 584.953125 31.921875 C 584.304688 31.347656 583.605469 30.84375 582.851562 30.410156 C 582.101562 29.972656 581.3125 29.621094 580.492188 29.34375 C 579.671875 29.066406 578.828125 28.875 577.96875 28.765625 C 577.105469 28.660156 576.242188 28.636719 575.378906 28.703125 C 574.515625 28.765625 573.664062 28.917969 572.828125 29.152344 C 571.992188 29.386719 571.191406 29.699219 570.417969 30.097656 C 569.648438 30.492188 568.921875 30.960938 568.242188 31.5 C 567.566406 32.042969 566.945312 32.644531 566.390625 33.308594 C 565.832031 33.972656 565.34375 34.6875 564.929688 35.449219 L 555.226562 52.136719 C 545.605469 47.367188 535.667969 43.378906 525.414062 40.179688 C 525.179688 40.105469 524.941406 40.0625 524.699219 40.046875 C 524.453125 40.03125 524.210938 40.042969 523.96875 40.085938 C 523.730469 40.125 523.496094 40.191406 523.269531 40.289062 C 523.042969 40.382812 522.832031 40.503906 522.636719 40.648438 C 522.4375 40.792969 522.261719 40.960938 522.105469 41.148438 C 521.945312 41.332031 521.8125 41.535156 521.699219 41.753906 C 521.589844 41.972656 521.507812 42.199219 521.449219 42.4375 C 521.390625 42.675781 521.363281 42.917969 521.363281 43.164062 L 521.363281 43.453125 C 521.378906 49.652344 520.027344 55.539062 517.3125 61.113281 C 517.214844 61.3125 517.136719 61.523438 517.085938 61.738281 C 517.03125 61.957031 517.003906 62.175781 516.996094 62.402344 C 516.992188 62.625 517.011719 62.847656 517.050781 63.066406 C 517.09375 63.285156 517.15625 63.496094 517.246094 63.703125 C 517.332031 63.910156 517.441406 64.101562 517.570312 64.285156 C 517.699219 64.46875 517.847656 64.636719 518.011719 64.785156 C 518.175781 64.9375 518.355469 65.070312 518.546875 65.183594 C 518.738281 65.292969 518.941406 65.386719 519.15625 65.453125 C 527.050781 68 534.734375 71.082031 542.199219 74.695312 L 529.515625 96.675781 L 484.175781 175.21875 C 481.882812 174.464844 479.554688 173.839844 477.1875 173.351562 L 477.1875 70.550781 L 480.851562 70.550781 C 483.003906 70.546875 485.128906 70.289062 487.21875 69.78125 C 489.308594 69.269531 491.3125 68.523438 493.226562 67.535156 C 495.140625 66.546875 496.910156 65.347656 498.539062 63.941406 C 500.164062 62.53125 501.605469 60.949219 502.855469 59.195312 C 504.496094 56.914062 505.746094 54.433594 506.601562 51.757812 C 507.460938 49.082031 507.886719 46.335938 507.875 43.527344 L 507.875 30.183594 C 507.875 29.332031 507.789062 28.484375 507.621094 27.648438 C 507.453125 26.808594 507.203125 25.996094 506.875 25.207031 C 506.546875 24.417969 506.148438 23.667969 505.671875 22.960938 C 505.195312 22.25 504.65625 21.59375 504.050781 20.988281 C 503.449219 20.386719 502.789062 19.847656 502.078125 19.375 C 501.367188 18.898438 500.617188 18.5 499.828125 18.171875 C 499.039062 17.847656 498.226562 17.597656 497.386719 17.433594 C 496.550781 17.265625 495.703125 17.183594 494.847656 17.183594 L 433.476562 17.183594 C 432.625 17.183594 431.777344 17.269531 430.941406 17.4375 C 430.105469 17.605469 429.292969 17.851562 428.503906 18.179688 C 427.714844 18.507812 426.96875 18.90625 426.257812 19.382812 C 425.550781 19.855469 424.894531 20.394531 424.289062 21 C 423.6875 21.601562 423.148438 22.257812 422.671875 22.96875 C 422.199219 23.675781 421.796875 24.425781 421.46875 25.214844 C 421.144531 26 420.894531 26.8125 420.730469 27.648438 C 420.558594 28.488281 420.476562 29.332031 420.476562 30.183594 L 420.476562 35.523438 C 414.605469 36.808594 408.710938 38.359375 402.910156 40.179688 C 392.660156 43.378906 382.722656 47.367188 373.097656 52.136719 L 363.394531 35.449219 C 362.96875 34.710938 362.472656 34.019531 361.910156 33.375 C 361.347656 32.734375 360.726562 32.152344 360.050781 31.632812 C 359.371094 31.113281 358.648438 30.664062 357.882812 30.285156 C 357.117188 29.90625 356.324219 29.605469 355.5 29.386719 C 354.671875 29.164062 353.835938 29.027344 352.984375 28.96875 C 352.128906 28.914062 351.28125 28.941406 350.433594 29.050781 C 349.585938 29.164062 348.757812 29.355469 347.949219 29.628906 C 347.140625 29.90625 346.367188 30.253906 345.625 30.683594 C 344.886719 31.109375 344.195312 31.605469 343.554688 32.167969 C 342.910156 32.730469 342.328125 33.351562 341.808594 34.027344 C 341.289062 34.707031 340.839844 35.425781 340.460938 36.191406 C 340.085938 36.957031 339.785156 37.753906 339.5625 38.578125 C 339.339844 39.402344 339.203125 40.242188 339.148438 41.09375 C 339.089844 41.949219 339.117188 42.796875 339.230469 43.644531 C 339.339844 44.492188 339.535156 45.320312 339.808594 46.128906 C 340.082031 46.9375 340.433594 47.710938 340.859375 48.449219 L 350.5625 65.164062 C 340.402344 71.929688 330.917969 79.539062 322.109375 87.988281 C 321.683594 88.398438 321.398438 88.886719 321.25 89.457031 C 321.101562 90.027344 321.113281 90.59375 321.285156 91.15625 C 321.457031 91.71875 321.761719 92.195312 322.203125 92.585938 C 322.644531 92.976562 323.152344 93.222656 323.734375 93.328125 C 326.855469 93.878906 329.789062 94.953125 332.523438 96.558594 C 335.261719 98.160156 337.636719 100.1875 339.648438 102.640625 C 340.210938 103.332031 340.941406 103.710938 341.832031 103.78125 C 342.753906 103.871094 343.566406 103.601562 344.257812 102.980469 C 350.375 97.449219 356.84375 92.363281 363.664062 87.722656 L 376.347656 109.675781 L 421.6875 188.21875 C 419.886719 189.832031 418.179688 191.535156 416.570312 193.339844 L 338.046875 148 L 330.066406 143.394531 C 331.53125 139.988281 332.269531 136.429688 332.273438 132.71875 L 332.273438 119.425781 C 332.273438 118.574219 332.1875 117.726562 332.023438 116.890625 C 331.855469 116.054688 331.609375 115.238281 331.28125 114.453125 C 330.957031 113.664062 330.554688 112.914062 330.082031 112.203125 C 329.605469 111.492188 329.066406 110.835938 328.464844 110.234375 C 327.859375 109.628906 327.203125 109.089844 326.492188 108.617188 C 325.785156 108.140625 325.035156 107.742188 324.246094 107.414062 C 323.457031 107.089844 322.644531 106.839844 321.808594 106.675781 C 320.96875 106.507812 320.125 106.425781 319.269531 106.425781 L 257.898438 106.425781 C 257.042969 106.425781 256.199219 106.511719 255.363281 106.679688 C 254.527344 106.847656 253.714844 107.09375 252.925781 107.421875 C 252.136719 107.75 251.390625 108.148438 250.679688 108.625 C 249.972656 109.097656 249.316406 109.636719 248.710938 110.242188 C 248.109375 110.84375 247.570312 111.5 247.09375 112.210938 C 246.621094 112.917969 246.21875 113.667969 245.894531 114.457031 C 245.566406 115.242188 245.316406 116.054688 245.148438 116.890625 C 244.980469 117.730469 244.898438 118.574219 244.894531 119.425781 L 244.894531 132.695312 C 244.898438 133.582031 244.941406 134.460938 245.03125 135.34375 C 245.117188 136.222656 245.25 137.097656 245.421875 137.964844 C 245.597656 138.832031 245.8125 139.6875 246.070312 140.535156 C 246.328125 141.378906 246.625 142.210938 246.964844 143.027344 C 247.304688 143.847656 247.683594 144.644531 248.101562 145.425781 C 248.519531 146.203125 248.972656 146.960938 249.464844 147.695312 C 249.957031 148.433594 250.484375 149.140625 251.042969 149.824219 C 251.605469 150.507812 252.199219 151.164062 252.824219 151.789062 C 253.449219 152.414062 254.105469 153.007812 254.789062 153.570312 C 255.472656 154.128906 256.183594 154.65625 256.917969 155.148438 C 257.652344 155.640625 258.410156 156.09375 259.191406 156.511719 C 259.96875 156.929688 260.769531 157.308594 261.585938 157.648438 C 262.402344 157.988281 263.234375 158.285156 264.082031 158.542969 C 264.925781 158.800781 265.785156 159.015625 266.652344 159.191406 C 267.519531 159.363281 268.390625 159.496094 269.273438 159.582031 C 270.152344 159.671875 271.035156 159.714844 271.917969 159.71875 L 273.835938 159.71875 C 271.773438 164.859375 269.929688 170.125 268.304688 175.414062 C 266.679688 180.699219 265.175781 186.351562 263.988281 191.882812 C 263.9375 192.109375 263.914062 192.339844 263.917969 192.574219 C 263.921875 192.808594 263.949219 193.039062 264.003906 193.265625 C 264.058594 193.492188 264.136719 193.710938 264.238281 193.917969 C 264.339844 194.128906 264.464844 194.324219 264.613281 194.503906 C 264.757812 194.6875 264.921875 194.847656 265.105469 194.992188 C 265.289062 195.136719 265.484375 195.261719 265.695312 195.359375 C 265.90625 195.460938 266.125 195.539062 266.351562 195.589844 C 266.582031 195.640625 266.808594 195.667969 267.042969 195.667969 L 287.324219 195.667969 C 287.675781 195.664062 288.019531 195.605469 288.351562 195.488281 C 288.683594 195.371094 288.984375 195.203125 289.261719 194.980469 C 289.535156 194.761719 289.765625 194.503906 289.957031 194.203125 C 290.144531 193.90625 290.277344 193.585938 290.355469 193.242188 C 291.640625 187.929688 293.21875 182.570312 295.011719 177.328125 C 297.121094 171.3125 299.550781 165.425781 302.289062 159.667969 L 306.464844 159.667969 L 325.164062 170.464844 L 403.714844 215.800781 C 402.957031 218.09375 402.335938 220.421875 401.84375 222.785156 L 301.269531 222.785156 L 301.269531 222.203125 C 301.269531 221.351562 301.183594 220.507812 301.015625 219.667969 C 300.851562 218.832031 300.601562 218.019531 300.273438 217.234375 C 299.949219 216.445312 299.546875 215.695312 299.070312 214.988281 C 298.597656 214.277344 298.058594 213.621094 297.457031 213.019531 C 296.851562 212.414062 296.195312 211.875 295.488281 211.402344 C 294.777344 210.925781 294.027344 210.527344 293.242188 210.199219 C 292.453125 209.871094 291.640625 209.625 290.804688 209.457031 C 289.96875 209.289062 289.121094 209.203125 288.269531 209.203125 L 226.894531 209.203125 C 226.042969 209.203125 225.199219 209.289062 224.359375 209.457031 C 223.523438 209.625 222.710938 209.871094 221.925781 210.199219 C 221.136719 210.527344 220.386719 210.925781 219.679688 211.402344 C 218.96875 211.875 218.3125 212.414062 217.710938 213.019531 C 217.105469 213.621094 216.566406 214.277344 216.09375 214.988281 C 215.617188 215.695312 215.21875 216.445312 214.890625 217.234375 C 214.5625 218.019531 214.316406 218.832031 214.148438 219.667969 C 213.980469 220.507812 213.894531 221.351562 213.894531 222.203125 L 213.894531 235.496094 C 213.894531 236.382812 213.941406 237.265625 214.027344 238.144531 C 214.117188 239.023438 214.246094 239.898438 214.421875 240.765625 C 214.59375 241.632812 214.808594 242.488281 215.066406 243.335938 C 215.324219 244.183594 215.625 245.015625 215.964844 245.832031 C 216.304688 246.648438 216.679688 247.445312 217.097656 248.226562 C 217.515625 249.007812 217.972656 249.761719 218.464844 250.5 C 218.953125 251.234375 219.480469 251.945312 220.042969 252.628906 C 220.605469 253.3125 221.199219 253.964844 221.824219 254.589844 C 222.449219 255.214844 223.101562 255.808594 223.785156 256.371094 C 224.46875 256.933594 225.179688 257.460938 225.914062 257.949219 C 226.648438 258.441406 227.40625 258.898438 228.1875 259.316406 C 228.96875 259.730469 229.765625 260.109375 230.582031 260.449219 C 231.398438 260.789062 232.230469 261.085938 233.078125 261.34375 C 233.925781 261.601562 234.78125 261.820312 235.648438 261.992188 C 236.515625 262.167969 237.390625 262.296875 238.269531 262.386719 C 239.148438 262.472656 240.03125 262.519531 240.917969 262.519531 L 260.808594 262.519531 C 261.5625 268.292969 262.578125 274.113281 263.816406 279.816406 C 265.054688 285.515625 266.484375 290.875 268.132812 296.261719 C 268.234375 296.582031 268.378906 296.875 268.570312 297.148438 C 268.765625 297.421875 268.996094 297.65625 269.265625 297.855469 C 269.53125 298.054688 269.824219 298.207031 270.140625 298.3125 C 270.457031 298.414062 270.785156 298.46875 271.117188 298.46875 L 291.882812 298.46875 C 292.132812 298.46875 292.378906 298.441406 292.621094 298.382812 C 292.863281 298.324219 293.09375 298.234375 293.316406 298.121094 C 293.539062 298.007812 293.742188 297.871094 293.929688 297.707031 C 294.121094 297.542969 294.285156 297.359375 294.429688 297.15625 C 294.574219 296.953125 294.695312 296.738281 294.789062 296.507812 C 294.882812 296.273438 294.945312 296.035156 294.980469 295.789062 C 295.015625 295.542969 295.023438 295.296875 295 295.046875 C 294.976562 294.796875 294.925781 294.558594 294.84375 294.320312 C 292.835938 288.507812 291.140625 282.605469 289.75 276.613281 C 288.4375 271.035156 287.320312 265.285156 286.617188 259.511719 C 288.945312 258.3125 291.050781 256.808594 292.9375 254.996094 C 294.824219 253.183594 296.414062 251.136719 297.703125 248.863281 L 401.554688 248.863281 C 402.042969 251.234375 402.667969 253.570312 403.421875 255.875 L 324.875 301.210938 L 306.21875 311.980469 L 257.703125 311.980469 C 256.847656 311.980469 256.003906 312.066406 255.167969 312.234375 C 254.332031 312.402344 253.519531 312.648438 252.730469 312.976562 C 251.941406 313.304688 251.195312 313.703125 250.484375 314.179688 C 249.777344 314.652344 249.121094 315.191406 248.515625 315.796875 C 247.914062 316.398438 247.375 317.054688 246.898438 317.765625 C 246.425781 318.472656 246.023438 319.222656 245.699219 320.011719 C 245.371094 320.796875 245.121094 321.609375 244.953125 322.445312 C 244.785156 323.285156 244.703125 324.128906 244.703125 324.980469 L 244.703125 338.273438 C 244.703125 339.160156 244.746094 340.042969 244.835938 340.921875 C 244.921875 341.800781 245.054688 342.675781 245.226562 343.542969 C 245.402344 344.410156 245.617188 345.265625 245.875 346.113281 C 246.132812 346.960938 246.433594 347.792969 246.769531 348.609375 C 247.109375 349.425781 247.488281 350.222656 247.90625 351.003906 C 248.324219 351.785156 248.777344 352.542969 249.269531 353.277344 C 249.761719 354.011719 250.289062 354.722656 250.847656 355.40625 C 251.410156 356.089844 252.003906 356.742188 252.628906 357.367188 C 253.253906 357.992188 253.910156 358.585938 254.59375 359.148438 C 255.277344 359.710938 255.988281 360.238281 256.722656 360.726562 C 257.457031 361.21875 258.214844 361.675781 258.996094 362.09375 C 259.773438 362.511719 260.574219 362.886719 261.390625 363.226562 C 262.207031 363.566406 263.039062 363.863281 263.886719 364.121094 C 264.730469 364.378906 265.589844 364.597656 266.457031 364.769531 C 267.324219 364.945312 268.195312 365.074219 269.078125 365.164062 C 269.957031 365.25 270.839844 365.296875 271.722656 365.296875 L 305.054688 365.296875 C 309.496094 370.765625 314.210938 375.988281 319.195312 380.96875 C 328.777344 390.535156 339.199219 399.070312 350.464844 406.582031 L 313.398438 471.058594 C 312.519531 472.136719 311.832031 473.324219 311.335938 474.625 L 295.886719 501.308594 L 270.21875 501.308594 C 269.367188 501.308594 268.523438 501.390625 267.683594 501.558594 C 266.847656 501.722656 266.035156 501.96875 265.246094 502.296875 C 264.457031 502.625 263.707031 503.023438 262.996094 503.5 C 262.285156 503.972656 261.628906 504.511719 261.027344 505.117188 C 260.421875 505.71875 259.882812 506.375 259.410156 507.085938 C 258.933594 507.796875 258.535156 508.542969 258.207031 509.332031 C 257.878906 510.121094 257.632812 510.933594 257.46875 511.773438 C 257.300781 512.609375 257.21875 513.457031 257.21875 514.308594 C 257.21875 515.164062 257.300781 516.007812 257.46875 516.84375 C 257.632812 517.683594 257.878906 518.496094 258.207031 519.285156 C 258.535156 520.074219 258.933594 520.824219 259.410156 521.53125 C 259.882812 522.242188 260.421875 522.898438 261.027344 523.503906 C 261.628906 524.105469 262.285156 524.644531 262.996094 525.121094 C 263.707031 525.59375 264.457031 525.996094 265.246094 526.320312 C 266.035156 526.648438 266.847656 526.894531 267.683594 527.0625 C 268.523438 527.226562 269.367188 527.3125 270.21875 527.3125 L 658.082031 527.3125 C 658.933594 527.3125 659.78125 527.226562 660.617188 527.0625 C 661.453125 526.894531 662.269531 526.648438 663.058594 526.320312 C 663.847656 525.996094 664.59375 525.59375 665.304688 525.121094 C 666.015625 524.644531 666.671875 524.105469 667.277344 523.503906 C 667.878906 522.898438 668.417969 522.242188 668.894531 521.53125 C 669.367188 520.824219 669.765625 520.074219 670.09375 519.285156 C 670.421875 518.496094 670.667969 517.683594 670.832031 516.84375 C 671 516.007812 671.082031 515.164062 671.085938 514.308594 C 671.082031 513.457031 671 512.609375 670.832031 511.773438 C 670.667969 510.933594 670.421875 510.121094 670.09375 509.332031 C 669.765625 508.542969 669.367188 507.796875 668.890625 507.085938 C 668.417969 506.375 667.878906 505.71875 667.277344 505.117188 C 666.671875 504.511719 666.015625 503.972656 665.304688 503.5 C 664.59375 503.023438 663.847656 502.625 663.058594 502.296875 C 662.269531 501.96875 661.453125 501.722656 660.617188 501.558594 C 659.78125 501.390625 658.933594 501.308594 658.082031 501.308594 L 632.488281 501.308594 L 617.039062 474.625 C 616.539062 473.324219 615.851562 472.136719 614.976562 471.058594 L 577.8125 406.582031 C 589.046875 399.089844 599.445312 390.578125 609.007812 381.039062 C 609.191406 380.859375 609.347656 380.65625 609.480469 380.433594 C 609.613281 380.210938 609.71875 379.976562 609.792969 379.726562 C 609.867188 379.480469 609.910156 379.226562 609.921875 378.96875 C 609.933594 378.710938 609.914062 378.453125 609.863281 378.199219 C 609.8125 377.945312 609.730469 377.703125 609.617188 377.46875 C 609.503906 377.238281 609.367188 377.019531 609.199219 376.820312 C 609.035156 376.625 608.847656 376.449219 608.636719 376.296875 C 608.429688 376.144531 608.203125 376.019531 607.964844 375.921875 C 602.050781 373.511719 596.980469 369.914062 592.753906 365.128906 C 592.167969 364.46875 591.429688 364.121094 590.546875 364.085938 C 589.65625 364.050781 588.886719 364.34375 588.242188 364.957031 C 580.921875 371.992188 573.0625 378.367188 564.664062 384.074219 L 552 362.242188 L 506.664062 283.695312 L 507.632812 282.800781 C 509.0625 281.464844 510.421875 280.082031 511.78125 278.578125 L 590.304688 323.914062 L 596.101562 327.261719 L 596.101562 338.445312 C 596.089844 341.332031 596.53125 344.144531 597.433594 346.890625 C 598.332031 349.632812 599.644531 352.160156 601.367188 354.480469 L 601.367188 354.625 C 602.539062 356.199219 603.871094 357.625 605.359375 358.910156 C 606.84375 360.191406 608.453125 361.296875 610.179688 362.230469 C 611.910156 363.164062 613.71875 363.898438 615.605469 364.433594 C 617.492188 364.972656 619.417969 365.300781 621.378906 365.417969 L 656.359375 365.417969 C 657.242188 365.417969 658.125 365.371094 659.003906 365.285156 C 659.886719 365.195312 660.757812 365.066406 661.625 364.890625 C 662.492188 364.71875 663.351562 364.5 664.195312 364.246094 C 665.042969 363.988281 665.875 363.6875 666.691406 363.347656 C 667.507812 363.007812 668.308594 362.632812 669.085938 362.214844 C 669.867188 361.796875 670.625 361.339844 671.359375 360.847656 C 672.09375 360.359375 672.804688 359.832031 673.488281 359.269531 C 674.171875 358.707031 674.828125 358.117188 675.453125 357.488281 C 676.078125 356.863281 676.671875 356.210938 677.234375 355.527344 C 677.792969 354.84375 678.320312 354.132812 678.8125 353.398438 C 679.304688 352.664062 679.757812 351.90625 680.175781 351.125 C 680.59375 350.34375 680.972656 349.546875 681.3125 348.730469 C 681.648438 347.914062 681.949219 347.082031 682.207031 346.234375 C 682.464844 345.390625 682.679688 344.53125 682.855469 343.664062 C 683.027344 342.796875 683.160156 341.921875 683.246094 341.042969 C 683.335938 340.164062 683.378906 339.28125 683.382812 338.394531 L 683.382812 325.101562 C 683.378906 324.25 683.296875 323.40625 683.128906 322.570312 C 682.960938 321.730469 682.710938 320.917969 682.386719 320.132812 C 682.058594 319.34375 681.65625 318.59375 681.183594 317.886719 C 680.707031 317.175781 680.167969 316.519531 679.566406 315.917969 C 678.960938 315.3125 678.304688 314.773438 677.597656 314.300781 C 676.886719 313.824219 676.140625 313.425781 675.351562 313.097656 C 674.5625 312.769531 673.75 312.523438 672.914062 312.355469 C 672.078125 312.1875 671.234375 312.101562 670.378906 312.101562 L 654.441406 312.101562 C 656.503906 306.933594 658.347656 301.671875 659.972656 296.382812 C 661.597656 291.09375 663.101562 285.441406 664.289062 279.9375 C 664.339844 279.707031 664.363281 279.476562 664.359375 279.246094 C 664.355469 279.011719 664.328125 278.78125 664.273438 278.554688 C 664.21875 278.328125 664.140625 278.109375 664.039062 277.902344 C 663.933594 277.691406 663.808594 277.496094 663.664062 277.316406 C 663.519531 277.132812 663.351562 276.972656 663.171875 276.828125 C 662.988281 276.683594 662.789062 276.558594 662.582031 276.457031 C 662.371094 276.359375 662.152344 276.28125 661.925781 276.230469 C 661.695312 276.179688 661.464844 276.152344 661.234375 276.152344 L 653.957031 276.152344 C 650.015625 276.160156 646.160156 275.601562 642.386719 274.480469 C 641.972656 274.355469 641.558594 274.320312 641.132812 274.371094 C 640.707031 274.421875 640.308594 274.550781 639.9375 274.765625 C 639.566406 274.976562 639.253906 275.257812 638.996094 275.597656 C 638.738281 275.941406 638.558594 276.320312 638.457031 276.734375 C 635.613281 288.945312 631.53125 300.726562 626.207031 312.078125 L 621.960938 312.078125 L 603.304688 301.308594 L 524.808594 255.875 C 525.5625 253.570312 526.1875 251.234375 526.675781 248.863281 L 630.523438 248.863281 C 631.113281 249.894531 631.765625 250.882812 632.484375 251.832031 C 633.199219 252.777344 633.976562 253.671875 634.8125 254.515625 C 635.648438 255.359375 636.535156 256.144531 637.476562 256.871094 C 638.414062 257.597656 639.398438 258.257812 640.425781 258.855469 C 641.449219 259.453125 642.511719 259.980469 643.609375 260.4375 C 644.703125 260.894531 645.824219 261.277344 646.972656 261.585938 C 648.121094 261.898438 649.28125 262.128906 650.457031 262.285156 C 651.636719 262.441406 652.820312 262.519531 654.007812 262.519531 L 687.335938 262.519531 C 688.222656 262.519531 689.105469 262.472656 689.984375 262.386719 C 690.863281 262.296875 691.738281 262.167969 692.605469 261.992188 C 693.472656 261.820312 694.328125 261.601562 695.175781 261.34375 C 696.023438 261.089844 696.851562 260.789062 697.671875 260.449219 C 698.488281 260.109375 699.285156 259.734375 700.066406 259.316406 C 700.84375 258.898438 701.601562 258.441406 702.339844 257.953125 C 703.074219 257.460938 703.785156 256.933594 704.46875 256.371094 C 705.152344 255.808594 705.804688 255.214844 706.429688 254.589844 C 707.058594 253.964844 707.652344 253.3125 708.210938 252.628906 C 708.773438 251.945312 709.300781 251.234375 709.792969 250.5 C 710.285156 249.765625 710.738281 249.007812 711.15625 248.226562 C 711.574219 247.445312 711.953125 246.648438 712.289062 245.832031 C 712.628906 245.015625 712.929688 244.183594 713.1875 243.335938 C 713.445312 242.488281 713.660156 241.632812 713.832031 240.765625 C 714.007812 239.898438 714.136719 239.023438 714.226562 238.144531 C 714.3125 237.265625 714.359375 236.382812 714.359375 235.496094 L 714.359375 222.203125 C 714.359375 221.351562 714.273438 220.507812 714.105469 219.667969 C 713.9375 218.832031 713.691406 218.019531 713.363281 217.234375 C 713.035156 216.445312 712.636719 215.695312 712.160156 214.988281 C 711.6875 214.277344 711.148438 213.621094 710.542969 213.019531 C 709.941406 212.414062 709.285156 211.875 708.574219 211.402344 C 707.867188 210.925781 707.117188 210.527344 706.328125 210.199219 C 705.542969 209.871094 704.730469 209.625 703.890625 209.457031 C 703.054688 209.289062 702.210938 209.203125 701.359375 209.203125 L 667.398438 209.203125 C 666.644531 203.429688 665.625 197.632812 664.390625 191.90625 C 663.734375 188.875 662.980469 185.769531 662.15625 182.691406 C 661.503906 180.265625 660.796875 177.839844 660.070312 175.414062 C 659.96875 175.085938 659.816406 174.78125 659.613281 174.503906 C 659.410156 174.226562 659.167969 173.984375 658.890625 173.785156 C 658.609375 173.585938 658.304688 173.4375 657.976562 173.339844 C 657.644531 173.238281 657.308594 173.195312 656.964844 173.207031 L 636.324219 173.207031 C 636.074219 173.203125 635.828125 173.234375 635.585938 173.292969 C 635.34375 173.351562 635.109375 173.4375 634.890625 173.550781 C 634.667969 173.667969 634.460938 173.804688 634.273438 173.96875 C 634.085938 174.132812 633.917969 174.3125 633.773438 174.515625 C 633.628906 174.71875 633.511719 174.9375 633.417969 175.167969 C 633.324219 175.398438 633.261719 175.636719 633.226562 175.886719 C 633.1875 176.132812 633.183594 176.378906 633.207031 176.628906 C 633.230469 176.875 633.28125 177.117188 633.363281 177.351562 C 635.160156 182.59375 636.734375 187.929688 638.042969 193.289062 C 639.355469 198.652344 640.46875 203.816406 641.171875 209.179688 L 639.960938 209.179688 C 639.105469 209.179688 638.261719 209.265625 637.425781 209.433594 C 636.589844 209.601562 635.777344 209.847656 634.988281 210.175781 C 634.199219 210.5 633.453125 210.902344 632.742188 211.375 C 632.03125 211.851562 631.375 212.390625 630.773438 212.992188 C 630.171875 213.597656 629.632812 214.253906 629.15625 214.960938 C 628.683594 215.671875 628.28125 216.421875 627.953125 217.207031 C 627.628906 217.996094 627.378906 218.808594 627.210938 219.644531 C 627.042969 220.480469 626.960938 221.328125 626.957031 222.179688 L 626.957031 222.835938 L 526.652344 222.835938 C 526.160156 220.464844 525.539062 218.125 524.785156 215.824219 Z M 603.332031 170.511719 " fill-opacity="1" fill-rule="nonzero"/></g><path fill="#ffffff" d="M 471.34375 223.367188 C 470.84375 223.082031 470.328125 222.824219 469.796875 222.59375 C 469.265625 222.367188 468.722656 222.175781 468.171875 222.011719 C 467.617188 221.851562 467.054688 221.722656 466.484375 221.628906 C 465.917969 221.535156 465.34375 221.476562 464.765625 221.449219 C 464.191406 221.425781 463.613281 221.433594 463.039062 221.476562 C 462.464844 221.519531 461.894531 221.597656 461.328125 221.710938 C 460.761719 221.824219 460.203125 221.96875 459.65625 222.148438 C 459.105469 222.328125 458.570312 222.539062 458.046875 222.785156 C 457.523438 223.027344 457.015625 223.300781 456.527344 223.605469 C 456.035156 223.910156 455.566406 224.242188 455.117188 224.605469 C 454.667969 224.964844 454.238281 225.351562 453.835938 225.765625 C 453.429688 226.175781 453.054688 226.613281 452.703125 227.070312 C 452.351562 227.527344 452.027344 228.007812 451.734375 228.503906 C 451.441406 229 451.175781 229.511719 450.945312 230.039062 C 450.710938 230.566406 450.511719 231.109375 450.34375 231.660156 C 450.175781 232.210938 450.042969 232.773438 449.941406 233.339844 C 449.84375 233.910156 449.777344 234.480469 449.746094 235.058594 C 449.714844 235.632812 449.71875 236.210938 449.753906 236.785156 C 449.792969 237.363281 449.863281 237.933594 449.972656 238.5 C 450.078125 239.066406 450.21875 239.625 450.390625 240.175781 C 450.566406 240.726562 450.769531 241.265625 451.007812 241.789062 C 451.246094 242.316406 451.515625 242.824219 451.816406 243.320312 C 452.113281 243.8125 452.441406 244.285156 452.796875 244.742188 C 453.152344 245.195312 453.535156 245.625 453.945312 246.035156 C 454.351562 246.441406 454.785156 246.824219 455.238281 247.179688 C 455.691406 247.535156 456.167969 247.863281 456.660156 248.164062 C 457.152344 248.464844 457.664062 248.730469 458.1875 248.96875 C 458.714844 249.207031 459.25 249.414062 459.800781 249.585938 C 460.351562 249.761719 460.914062 249.902344 461.480469 250.007812 C 462.046875 250.113281 462.617188 250.183594 463.195312 250.222656 C 463.769531 250.261719 464.34375 250.261719 464.921875 250.230469 C 465.5 250.199219 466.070312 250.132812 466.640625 250.035156 C 467.207031 249.933594 467.769531 249.800781 468.320312 249.632812 C 468.871094 249.464844 469.414062 249.265625 469.941406 249.03125 C 470.46875 248.796875 470.980469 248.535156 471.476562 248.242188 C 471.972656 247.945312 472.449219 247.625 472.910156 247.273438 C 473.367188 246.921875 473.800781 246.542969 474.214844 246.140625 C 474.625 245.738281 475.011719 245.308594 475.375 244.859375 C 475.734375 244.410156 476.066406 243.9375 476.371094 243.449219 C 476.675781 242.957031 476.953125 242.453125 477.195312 241.929688 C 477.4375 241.40625 477.648438 240.867188 477.828125 240.320312 C 478.007812 239.773438 478.15625 239.214844 478.269531 238.648438 C 478.378906 238.082031 478.457031 237.511719 478.5 236.9375 C 478.542969 236.359375 478.554688 235.785156 478.527344 235.207031 C 478.503906 234.632812 478.445312 234.058594 478.351562 233.488281 C 478.253906 232.921875 478.128906 232.359375 477.964844 231.804688 C 477.804688 231.25 477.609375 230.707031 477.382812 230.179688 C 477.15625 229.648438 476.898438 229.132812 476.609375 228.632812 C 475.324219 226.40625 473.570312 224.652344 471.34375 223.367188 " fill-opacity="1" fill-rule="nonzero"/><g clip-path="url(#d260d89685)"><path fill="#ffffff" d="M 339.621094 720.640625 L 641.488281 720.640625 C 644.609375 720.640625 647.699219 720.355469 650.765625 719.777344 C 653.832031 719.203125 656.816406 718.347656 659.722656 717.210938 C 662.625 716.078125 665.402344 714.683594 668.046875 713.027344 C 670.691406 711.371094 673.160156 709.488281 675.449219 707.371094 L 788.394531 603.066406 C 789.085938 602.429688 789.726562 601.746094 790.316406 601.011719 C 790.90625 600.28125 791.433594 599.511719 791.90625 598.699219 C 792.378906 597.886719 792.789062 597.042969 793.136719 596.167969 C 793.480469 595.296875 793.761719 594.402344 793.972656 593.488281 C 794.183594 592.570312 794.328125 591.644531 794.398438 590.707031 C 794.472656 589.773438 794.472656 588.835938 794.40625 587.898438 C 794.335938 586.960938 794.199219 586.035156 793.992188 585.117188 C 793.78125 584.203125 793.507812 583.304688 793.164062 582.433594 C 792.824219 581.558594 792.417969 580.710938 791.949219 579.898438 C 791.480469 579.085938 790.953125 578.3125 790.367188 577.578125 C 789.78125 576.84375 789.144531 576.15625 788.453125 575.515625 C 787.765625 574.875 787.035156 574.292969 786.257812 573.765625 C 785.480469 573.234375 784.667969 572.769531 783.820312 572.359375 C 782.976562 571.953125 782.101562 571.613281 781.203125 571.335938 C 780.304688 571.0625 779.390625 570.855469 778.460938 570.714844 C 777.535156 570.578125 776.597656 570.511719 775.660156 570.511719 L 518.523438 570.511719 C 279.65625 570.511719 147.085938 574.273438 147.085938 512.976562 C 147.085938 440.445312 240.894531 436.6875 240.894531 390.425781 C 240.894531 332.527344 138.328125 331.652344 47.046875 331.652344 C 84.066406 337.960938 167.101562 344.363281 167.101562 379.171875 C 167.101562 416.699219 13.28125 446.703125 13.28125 580.507812 C 13.28125 684.300781 119.578125 720.566406 339.695312 720.566406 " fill-opacity="1" fill-rule="nonzero"/></g></svg>