<svg id="ハンドルアイコン1" xmlns="http://www.w3.org/2000/svg" width="29.186" height="29.186" viewBox="0 0 29.186 29.186">
                    <path id="Path_294" data-name="Path 294" d="M232.675,245.5a1.41,1.41,0,1,0,1.41,1.411A1.411,1.411,0,0,0,232.675,245.5Z" transform="translate(-218.082 -231.502)" fill="#fff"/>
                    <path id="Path_295" data-name="Path 295" d="M24.912,4.274a14.594,14.594,0,1,0,4.274,10.319A14.557,14.557,0,0,0,24.912,4.274ZM12.654,21.96c-.143,1.9-.7,3.242-2.66,2.394a10.845,10.845,0,0,1-5.273-5.4c-.733-1.928,1-2.615,4.055-2.03A4.468,4.468,0,0,1,12.654,21.96Zm1.939-4.3A2.256,2.256,0,1,1,16.849,15.4,2.256,2.256,0,0,1,14.593,17.659Zm9.871,1.29a10.845,10.845,0,0,1-5.273,5.4c-1.955.849-2.517-.5-2.66-2.394a4.468,4.468,0,0,1,3.877-5.04C23.468,16.334,25.2,17.021,24.464,18.949Zm-3.526-5.837a29.35,29.35,0,0,0-6.345-1.269,29.354,29.354,0,0,0-6.345,1.269c-3.031.846-4.31-.686-3.676-2.519a10.793,10.793,0,0,1,20.042,0C25.248,12.427,23.969,13.959,20.938,13.113Z" transform="translate(0 0)" fill="#fff"/>
                  </svg> 