 <svg xmlns="http://www.w3.org/2000/svg" width="24.466" height="29.186" viewBox="0 0 24.466 29.186">
                    <path id="Path_293" data-name="Path 293" d="M64.785,9.191h0L55.964.923a3.414,3.414,0,0,0-4.67,0L42.476,9.191A3.414,3.414,0,0,0,41.4,11.682v14.09a3.414,3.414,0,0,0,3.414,3.414H62.449a3.414,3.414,0,0,0,3.414-3.414V11.682A3.416,3.416,0,0,0,64.785,9.191Zm-1.64,16.581a.7.7,0,0,1-.7.7h-5.8V20.426H50.609v6.041h-5.8a.695.695,0,0,1-.7-.7V11.682a.692.692,0,0,1,.219-.507l8.819-8.268a.7.7,0,0,1,.95,0l8.819,8.268h0a.7.7,0,0,1,.22.508v14.09Z" transform="translate(-41.397 0)" fill="#fff"/>
                  </svg> 