<svg xmlns="http://www.w3.org/2000/svg" width="93" height="70" viewBox="0 0 93 70"><g transform="translate(0 -742)"><rect width="93" height="70" transform="translate(0 742)" fill="none"/><path d="M-17.37,0h1.15V-3.3h4.75V0h1.15V-7.5h-1.15v3.15h-4.75V-7.5h-1.15Zm16.1-3.15v-1.2a2.942,2.942,0,0,0-3.3-3.28h-1c-2.31,0-3.3,1.28-3.3,3.28v1.2c0,1.98.99,3.27,3.3,3.27h1A2.943,2.943,0,0,0-1.27-3.15Zm-6.35.27V-4.63c0-1.35.53-2,1.9-2h1.3c1.38,0,1.9.65,1.9,2v1.75c0,1.34-.52,2-1.9,2h-1.3C-7.09-.88-7.62-1.54-7.62-2.88ZM-.27,0H.9L1.96-6.35c.03-.2.11-.27.22-.27s.18.06.23.29L3.62-1.16C3.79-.43,4.09.13,4.95.13c.83,0,1.16-.47,1.36-1.33L7.53-6.34c.05-.21.13-.28.25-.28s.17.07.2.27L9.02,0h1.22L9.11-6.3c-.16-.89-.52-1.33-1.35-1.33-.79,0-1.2.6-1.39,1.41L5.13-1.06c-.04.17-.06.27-.18.27s-.14-.1-.18-.28L3.55-6.22c-.19-.81-.54-1.41-1.38-1.41-.77,0-1.13.45-1.29,1.33ZM11.59,0H17.6V-1H12.74V-3.31H17.6v-1H12.74V-6.5H17.6v-1H11.59Z" transform="translate(47 799)" fill="#fff"/><path d="M62.488,8.289h0L54.534.833a3.078,3.078,0,0,0-4.211,0L42.37,8.289a3.078,3.078,0,0,0-.973,2.246V23.241a3.079,3.079,0,0,0,3.079,3.079H60.382a3.079,3.079,0,0,0,3.079-3.079V10.535A3.08,3.08,0,0,0,62.488,8.289ZM61.009,23.241a.629.629,0,0,1-.627.627H55.153V18.421H49.7v5.448H44.476a.627.627,0,0,1-.627-.627V10.535a.624.624,0,0,1,.2-.457L52,2.621a.627.627,0,0,1,.857,0l7.954,7.456h0a.627.627,0,0,1,.2.458V23.241Z" transform="translate(-5.929 755.678)" fill="#fff"/></g></svg>