<svg xmlns="http://www.w3.org/2000/svg" width="93" height="70" viewBox="0 0 93 70"><g transform="translate(0 -742)"><rect width="93" height="70" transform="translate(0 742)" fill="none"/><path d="M-16.97-7.5h-3.4V0h3.35c2.36,0,3.55-1.15,3.55-3.15v-1.2C-13.47-6.35-14.72-7.5-16.97-7.5Zm.15,1c1.35,0,2.1.52,2.1,1.87v1.75c0,1.35-.75,1.88-2.15,1.88h-2.35V-6.5ZM-5.72,0-8.8-3.35h.57c1.68,0,2.64-.41,2.64-1.94v-.27c0-1.53-1.11-1.94-2.59-1.94h-4.04V0h1.15V-6.5h3.14c.87,0,1.16.19,1.16.92v.31c0,.73-.29.94-1.16.94H-9.66a.612.612,0,0,0-.63.39.78.78,0,0,0,.21.73L-7.14,0Zm1.63,0h1.15V-7.5H-4.09ZM-.34-7.5h-1.3L.77-.97A1.39,1.39,0,0,0,2.14.13c.76,0,1.07-.48,1.34-1.21L5.86-7.5H4.64L2.39-1.37c-.09.25-.17.3-.29.3s-.2-.07-.28-.31ZM7.06,0h6.01V-1H8.21V-3.31h4.86v-1H8.21V-6.5h4.86v-1H7.06Zm8.46,0V-3.35h.46L19.25,0h1.51L17.51-3.35h.62c1.68,0,2.64-.41,2.64-1.94v-.27c0-1.53-1.11-1.94-2.59-1.94H12.34v1h6.09c.87,0,1.16.19,1.16.92v.31c0,.73-.29.94-1.16.94H15a.594.594,0,0,0-.63.59V0Z" transform="translate(47 799)" fill="#fff"/><g transform="translate(33.662 755.678)"><path d="M232.5,245.5a1.233,1.233,0,1,0,1.233,1.234A1.235,1.235,0,0,0,232.5,245.5Z" transform="translate(-219.338 -232.835)" fill="#fff"/><path d="M22.466,3.854A13.161,13.161,0,1,0,26.32,13.16,13.128,13.128,0,0,0,22.466,3.854ZM11.412,19.8c-.129,1.712-.635,2.924-2.4,2.159a9.78,9.78,0,0,1-4.755-4.874c-.661-1.739.9-2.359,3.657-1.83A4.03,4.03,0,0,1,11.412,19.8Zm1.748-3.878A2.034,2.034,0,1,1,15.2,13.892,2.034,2.034,0,0,1,13.16,15.926Zm8.9,1.163a9.78,9.78,0,0,1-4.755,4.874c-1.763.765-2.27-.447-2.4-2.159a4.029,4.029,0,0,1,3.5-4.545C21.164,14.731,22.723,15.35,22.062,17.089Zm-3.18-5.264a26.469,26.469,0,0,0-5.722-1.145,26.473,26.473,0,0,0-5.722,1.145c-2.734.763-3.887-.619-3.315-2.272a9.734,9.734,0,0,1,18.074,0C22.769,11.207,21.616,12.589,18.882,11.825Z" transform="translate(0 0)" fill="#fff"/></g></g></svg>