<svg xmlns="http://www.w3.org/2000/svg" width="28" height="24.001" viewBox="0 0 28 24.001"><g transform="translate(2.316 0.513)"><rect width="28" height="24" transform="translate(-2.316 -0.512)" fill="none"/><path d="M23.678,11.839A11.839,11.839,0,1,0,8.979,23.33V15.457H6.538V11.839H8.979V10.28c0-4.03,1.824-5.9,5.78-5.9a13.054,13.054,0,0,1,2.574.294v3.28c-.279-.029-.765-.044-1.368-.044-1.941,0-2.691.735-2.691,2.647v1.279h3.867l-.664,3.618h-3.2v8.135a11.841,11.841,0,0,0,10.4-11.753" transform="translate(-0.315 -0.513)" fill="#fff"/></g></svg>