<svg xmlns="http://www.w3.org/2000/svg" width="93" height="70" viewBox="0 0 93 70"><g transform="translate(3 -742)"><rect width="93" height="70" transform="translate(-3 742)" fill="none"/><g transform="translate(1975.318 877)"><path d="M30,1H0A1,1,0,0,1-1,0,1,1,0,0,1,0-1H30a1,1,0,0,1,1,1A1,1,0,0,1,30,1Z" transform="translate(-1946.319 -112)" fill="#fff"/><path d="M30,1H0A1,1,0,0,1-1,0,1,1,0,0,1,0-1H30a1,1,0,0,1,1,1A1,1,0,0,1,30,1Z" transform="translate(-1946.319 -100)" fill="#fff"/><path d="M30,1H0A1,1,0,0,1-1,0,1,1,0,0,1,0-1H30a1,1,0,0,1,1,1A1,1,0,0,1,30,1Z" transform="translate(-1946.319 -88)" fill="#fff"/></g></g></svg>