<svg xmlns="http://www.w3.org/2000/svg" xmlns:xlink="http://www.w3.org/1999/xlink" width="93" height="70" viewBox="0 0 93 70"><defs><clipPath id="a"><rect width="32.205" height="29" fill="#fff"/></clipPath></defs><g transform="translate(0 -742)"><rect width="93" height="70" transform="translate(0 742)" fill="none"/><path d="M-15.64-1H-19.1C-20.5-1-21-1.65-21-3V-4.5c0-1.35.5-2,1.9-2h3.41v-1h-3.26c-2.36,0-3.3,1.28-3.3,3.28v.94c0,2,.94,3.28,3.3,3.28h3.31Zm1.4,1h1.15V-7.5h-1.15Zm9.55,0L-7.77-3.35h.57c1.68,0,2.64-.41,2.64-1.94v-.27c0-1.53-1.11-1.94-2.59-1.94h-4.04V0h1.15V-6.5H-6.9c.87,0,1.16.19,1.16.92v.31c0,.73-.29.94-1.16.94H-8.63a.612.612,0,0,0-.63.39.78.78,0,0,0,.21.73L-6.11,0ZM3-1H-.46c-1.4,0-1.9-.65-1.9-2V-4.5c0-1.35.5-2,1.9-2H2.95v-1H-.31c-2.36,0-3.3,1.28-3.3,3.28v.94c0,2,.94,3.28,3.3,3.28H3ZM7.1.13H8.4c2.06,0,2.9-.74,2.9-2.46V-7.5H10.15v5.25c0,.94-.49,1.38-1.44,1.38H6.91c-1,0-1.46-.44-1.46-1.38V-7.5H4.3v5.17C4.3-.61,5.15.13,7.1.13ZM13.2,0h1.15V-7.5H13.2Zm5.3,0h1.15V-6.5h3v-1H15.5v1h3Z" transform="translate(47 799.001)" fill="#fff"/><g transform="translate(-169 494.5)"><g transform="translate(200 260)" clip-path="url(#a)"><path d="M172.166,8.235l0,0a1.546,1.546,0,0,1,.172.447,1.534,1.534,0,0,1-.008.694l0,.02,0,.017,0,.009a1.547,1.547,0,0,1-.154.37l0,0a1.584,1.584,0,0,1-.571.57,1.535,1.535,0,0,1-.24.112,1.571,1.571,0,0,1-1.243-.072c-.025-.013-.051-.026-.075-.04s-.067-.041-.107-.069a1.574,1.574,0,0,1-.464-.5h0l0,0a1.569,1.569,0,0,1-.087-.176l0-.007,0-.012a1.56,1.56,0,0,1-.06-.987c0-.013.008-.026.012-.039l.011-.035.006-.02,0-.007a1.549,1.549,0,0,1,.125-.274,1.571,1.571,0,0,1,.571-.572,1.546,1.546,0,0,1,.272-.124,1.558,1.558,0,0,1,1.817.627c.014.022.029.045.042.068m-.815,7.1V11.593c.063-.013.127-.029.19-.047l.1-.03,1.869,3.238.523.905a7.365,7.365,0,0,1-.817.337c-.218.075-.441.14-.665.194a.538.538,0,0,0-.47-.278h-.729Zm4.665-9.937-3.238,1.869a2.65,2.65,0,0,0-.211-.211l1.869-3.238.523-.906a7.425,7.425,0,0,1,.8.629,7.3,7.3,0,0,1,.519.518.539.539,0,0,0-.025.16v.547a1.115,1.115,0,0,0,.091.44ZM170.278,2.7V6.438c-.068.014-.136.031-.2.051l-.085.026-1.869-3.238-.523-.906a7.381,7.381,0,0,1,.949-.381,7.467,7.467,0,0,1,.725-.193,1.116,1.116,0,0,0,.855.4h.151Zm-4.665,9.937,3.238-1.869a2.667,2.667,0,0,0,.211.211l-1.869,3.238-.523.905a7.412,7.412,0,0,1-.972-.788c-.169-.163-.333-.336-.487-.516a1.1,1.1,0,0,0,.163-.581v-.462Zm4.665,2.693v.58h-.729a.535.535,0,0,0-.536.536v.547a1.115,1.115,0,0,0,1.114,1.114H171.5a1.113,1.113,0,0,0,1.077-.827c.259-.055.515-.122.762-.2a8.4,8.4,0,0,0,1.229-.493l1.111,1.924h-9.73l1.111-1.924a8.393,8.393,0,0,0,1.229.493.129.129,0,0,0,.167-.123v-.512a1.083,1.083,0,0,1,.04-.295.129.129,0,0,0-.082-.157,7.3,7.3,0,0,1-.817-.336l.523-.905,1.869-3.238.1.03c.063.018.127.034.19.047Zm6.274-9.009.771-.445h1.419a1.116,1.116,0,0,0,1.114-1.114V4.215a.537.537,0,0,0-.536-.536H177.37a8.435,8.435,0,0,0-1.873-1.7l.4-.69a.536.536,0,1,0-.928-.536l-.4.688A8.411,8.411,0,0,0,173.34.948a.129.129,0,0,0-.167.123v.012a1.651,1.651,0,0,1-.167.728.129.129,0,0,0,.076.179,7.382,7.382,0,0,1,.95.381l-.523.906-1.869,3.238a2.639,2.639,0,0,0-.288-.077V2.2h.151a1.116,1.116,0,0,0,.907-.468,1.1,1.1,0,0,0,.207-.646V.536A.537.537,0,0,0,172.08,0h-2.53a.537.537,0,0,0-.536.536v.22c-.242.053-.485.117-.724.192a8.4,8.4,0,0,0-1.229.493l-.4-.688a.536.536,0,1,0-.929.536l.4.689a8.5,8.5,0,0,0-1.173.941.129.129,0,0,0,.067.22,1.094,1.094,0,0,1,.656.384.129.129,0,0,0,.09.047.131.131,0,0,0,.1-.033,7.409,7.409,0,0,1,.8-.629l.523.905,1.869,3.238a2.66,2.66,0,0,0-.211.211l-3.237-1.869-.329-.19a1.116,1.116,0,0,0,.091-.44V4.215a.536.536,0,0,0-.536-.536h-2.53a.537.537,0,0,0-.536.536v.547a1.116,1.116,0,0,0,1.114,1.114h.079c-.085.212-.161.429-.228.647s-.129.451-.178.679a.129.129,0,0,0,.126.156h.836a.129.129,0,0,0,.125-.1c.053-.219.118-.44.192-.656a7.34,7.34,0,0,1,.3-.728h.172l.771.445,3.238,1.869a2.628,2.628,0,0,0-.077.288H164.1V8.452a.537.537,0,0,0-.536-.536h-2.53a.537.537,0,0,0-.536.536V9a1.116,1.116,0,0,0,1.114,1.114h.82c.031.238.073.478.124.713s.11.456.178.678a.129.129,0,0,0,.123.091h.856a.129.129,0,0,0,.122-.171,7.305,7.305,0,0,1-.21-.73c-.054-.23-.1-.467-.129-.705a1.111,1.111,0,0,0,.457-.439h4.281a2.654,2.654,0,0,0,.077.289l-3.238,1.869-.769.444h-2a.537.537,0,0,0-.536.536v.548a1.116,1.116,0,0,0,1.114,1.114h1.374a8.361,8.361,0,0,0,.583.646,8.492,8.492,0,0,0,1.289,1.056L164.6,18.711a.534.534,0,0,0-.085.147l-.637,1.1H162.82a.536.536,0,1,0,0,1.072h15.989a.536.536,0,0,0,0-1.072h-1.055l-.637-1.1a.534.534,0,0,0-.085-.147L175.5,16.053A8.49,8.49,0,0,0,176.786,15a.129.129,0,0,0-.043-.211,1.686,1.686,0,0,1-.627-.445.129.129,0,0,0-.091-.043.131.131,0,0,0-.095.036,7.425,7.425,0,0,1-.972.788l-.522-.9-1.869-3.238.04-.037c.059-.055.115-.112.171-.174l3.237,1.869.239.138v.461a1.1,1.1,0,0,0,.217.661l0,.006a1.113,1.113,0,0,0,.825.445l.068,0h1.374a1.116,1.116,0,0,0,1.114-1.114v-.548a.537.537,0,0,0-.536-.536h-.657c.085-.213.161-.43.228-.648s.129-.451.178-.678a.129.129,0,0,0-.126-.156h-.3a1.659,1.659,0,0,1-.477-.069A.129.129,0,0,0,178,10.7a7.361,7.361,0,0,1-.505,1.457h-.175l-.769-.444L173.315,9.84a2.621,2.621,0,0,0,.077-.289h4.281a1.114,1.114,0,0,0,.968.563h1.374A1.116,1.116,0,0,0,181.129,9V8.452a.537.537,0,0,0-.536-.536h-1.4c-.031-.238-.073-.477-.124-.713-.027-.125-.058-.253-.092-.38-.027-.1-.056-.2-.086-.3a.13.13,0,0,0-.128-.091h-.851a.129.129,0,0,0-.122.171c.074.216.139.436.193.657s.1.434.129.655h-.05a.537.537,0,0,0-.536.536v.027h-4.135a2.64,2.64,0,0,0-.077-.289Z" transform="translate(-152.225)" fill="#fff"/><path d="M349.938,163.423a.594.594,0,1,0,.217.217.591.591,0,0,0-.217-.217" transform="translate(-331.052 -154.923)" fill="#fff"/><path d="M13.456,267.534H25.9a2.062,2.062,0,0,0,1.4-.547l4.656-4.3a.773.773,0,0,0-.525-1.342h-10.6c-9.847,0-15.312.155-15.312-2.372,0-2.99,3.867-3.145,3.867-5.052,0-2.387-4.228-2.423-7.991-2.423,1.526.26,4.949.524,4.949,1.959,0,1.547-6.341,2.784-6.341,8.3,0,4.279,4.382,5.774,13.456,5.774" transform="translate(0 -238.534)" fill="#fff"/><path d="M197.717,174.851h0Z" transform="translate(-186.507 -165.837)" fill="#fff"/></g></g></g></svg>